<?xml version="1.0" encoding="UTF-8" standalone="no"?>
<!DOCTYPE svg PUBLIC "-//W3C//DTD SVG 1.1//EN"
 "http://www.w3.org/Graphics/SVG/1.1/DTD/svg11.dtd">
<!-- Generated by graphviz version 2.40.1 (20161225.0304)
 -->
<!-- Title: dependencies Pages: 1 -->
<svg width="1351pt" height="284pt"
 viewBox="0.00 0.00 1351.00 284.00" xmlns="http://www.w3.org/2000/svg" xmlns:xlink="http://www.w3.org/1999/xlink">
<g id="graph0" class="graph" transform="scale(1 1) rotate(0) translate(4 280)">
<title>dependencies</title>
<polygon fill="#ffffff" stroke="transparent" points="-4,4 -4,-280 1347,-280 1347,4 -4,4"/>
<text text-anchor="start" x="650.5091" y="-42.4" font-family="sans-serif" font-weight="bold" font-size="14.00" fill="#000000">Legend</text>
<polygon fill="#ffffb3" stroke="transparent" points="437.5,-10 437.5,-30 457.5,-30 457.5,-10 437.5,-10"/>
<text text-anchor="start" x="461.129" y="-15.4" font-family="sans-serif" font-size="14.00" fill="#000000"> &#160;Declarations</text>
<polygon fill="#8dd3c7" stroke="transparent" points="550.5,-10 550.5,-30 570.5,-30 570.5,-10 550.5,-10"/>
<text text-anchor="start" x="574.2251" y="-15.4" font-family="sans-serif" font-size="14.00" fill="#000000"> &#160;Module</text>
<polygon fill="#80b1d3" stroke="transparent" points="636.5,-10 636.5,-30 656.5,-30 656.5,-10 636.5,-10"/>
<text text-anchor="start" x="660.2812" y="-15.4" font-family="sans-serif" font-size="14.00" fill="#000000"> &#160;Bootstrap</text>
<polygon fill="#fdb462" stroke="transparent" points="733.5,-10 733.5,-30 753.5,-30 753.5,-10 733.5,-10"/>
<text text-anchor="start" x="757.1732" y="-15.4" font-family="sans-serif" font-size="14.00" fill="#000000"> &#160;Providers</text>
<polygon fill="#fb8072" stroke="transparent" points="829.5,-10 829.5,-30 849.5,-30 849.5,-10 829.5,-10"/>
<text text-anchor="start" x="853.2258" y="-15.4" font-family="sans-serif" font-size="14.00" fill="#000000"> &#160;Exports</text>
<g id="clust1" class="cluster">
<title>cluster_AppModule</title>
<polygon fill="none" stroke="#000000" stroke-dasharray="1,5" points="8,-70 8,-268 1335,-268 1335,-70 8,-70"/>
</g>
<g id="clust2" class="cluster">
<title>cluster_AppModule_declarations</title>
<polygon fill="none" stroke="#000000" points="96,-78 96,-130 1327,-130 1327,-78 96,-78"/>
</g>
<g id="clust11" class="cluster">
<title>cluster_AppModule_imports</title>
<polygon fill="none" stroke="#000000" points="16,-78 16,-130 88,-130 88,-78 16,-78"/>
</g>
<g id="clust13" class="cluster">
<title>cluster_AppModule_bootstrap</title>
<polygon fill="none" stroke="#000000" points="632,-208 632,-260 756,-260 756,-208 632,-208"/>
</g>
<!-- AppComponent -->
<g id="node1" class="node">
<title>AppComponent</title>
<polygon fill="#ffffb3" stroke="#000000" points="1318.9399,-122 1213.0601,-122 1213.0601,-86 1318.9399,-86 1318.9399,-122"/>
<text text-anchor="middle" x="1266" y="-99.8" font-family="Times,serif" font-size="14.00" fill="#000000">AppComponent</text>
</g>
<!-- AppModule -->
<g id="node9" class="node">
<title>AppModule</title>
<polygon fill="#8dd3c7" stroke="#000000" points="735.6571,-187 732.6571,-191 711.6571,-191 708.6571,-187 652.3429,-187 652.3429,-151 735.6571,-151 735.6571,-187"/>
<text text-anchor="middle" x="694" y="-164.8" font-family="Times,serif" font-size="14.00" fill="#000000">AppModule</text>
</g>
<!-- AppComponent&#45;&gt;AppModule -->
<g id="edge1" class="edge">
<title>AppComponent&#45;&gt;AppModule</title>
<path fill="none" stroke="#000000" d="M1266,-122.0109C1266,-144.4852 1266,-180 1266,-180 1266,-180 746.0605,-180 746.0605,-180"/>
<polygon fill="#000000" stroke="#000000" points="746.0606,-176.5001 736.0605,-180 746.0605,-183.5001 746.0606,-176.5001"/>
</g>
<!-- HomeComponent -->
<g id="node2" class="node">
<title>HomeComponent</title>
<polygon fill="#ffffb3" stroke="#000000" points="1195.5451,-122 1080.4549,-122 1080.4549,-86 1195.5451,-86 1195.5451,-122"/>
<text text-anchor="middle" x="1138" y="-99.8" font-family="Times,serif" font-size="14.00" fill="#000000">HomeComponent</text>
</g>
<!-- HomeComponent&#45;&gt;AppModule -->
<g id="edge2" class="edge">
<title>HomeComponent&#45;&gt;AppModule</title>
<path fill="none" stroke="#000000" d="M1138,-122.1289C1138,-142.5724 1138,-173 1138,-173 1138,-173 745.7704,-173 745.7704,-173"/>
<polygon fill="#000000" stroke="#000000" points="745.7705,-169.5001 735.7704,-173 745.7704,-176.5001 745.7705,-169.5001"/>
</g>
<!-- BikeComponent -->
<g id="node3" class="node">
<title>BikeComponent</title>
<polygon fill="#ffffb3" stroke="#000000" points="1061.7744,-122 954.2256,-122 954.2256,-86 1061.7744,-86 1061.7744,-122"/>
<text text-anchor="middle" x="1008" y="-99.8" font-family="Times,serif" font-size="14.00" fill="#000000">BikeComponent</text>
</g>
<!-- BikeComponent&#45;&gt;AppModule -->
<g id="edge3" class="edge">
<title>BikeComponent&#45;&gt;AppModule</title>
<path fill="none" stroke="#000000" d="M1008,-122.2667C1008,-140.5552 1008,-166 1008,-166 1008,-166 745.6968,-166 745.6968,-166"/>
<polygon fill="#000000" stroke="#000000" points="745.6968,-162.5001 735.6968,-166 745.6967,-169.5001 745.6968,-162.5001"/>
</g>
<!-- BikeSelectorComponent -->
<g id="node4" class="node">
<title>BikeSelectorComponent</title>
<polygon fill="#ffffb3" stroke="#000000" points="935.6428,-122 782.3572,-122 782.3572,-86 935.6428,-86 935.6428,-122"/>
<text text-anchor="middle" x="859" y="-99.8" font-family="Times,serif" font-size="14.00" fill="#000000">BikeSelectorComponent</text>
</g>
<!-- BikeSelectorComponent&#45;&gt;AppModule -->
<g id="edge4" class="edge">
<title>BikeSelectorComponent&#45;&gt;AppModule</title>
<path fill="none" stroke="#000000" d="M859,-122.0091C859,-138.0494 859,-159 859,-159 859,-159 746.0634,-159 746.0634,-159"/>
<polygon fill="#000000" stroke="#000000" points="746.0634,-155.5001 736.0634,-159 746.0634,-162.5001 746.0634,-155.5001"/>
</g>
<!-- BikeColorComponent -->
<g id="node5" class="node">
<title>BikeColorComponent</title>
<polygon fill="#ffffb3" stroke="#000000" points="763.6624,-122 624.3376,-122 624.3376,-86 763.6624,-86 763.6624,-122"/>
<text text-anchor="middle" x="694" y="-99.8" font-family="Times,serif" font-size="14.00" fill="#000000">BikeColorComponent</text>
</g>
<!-- BikeColorComponent&#45;&gt;AppModule -->
<g id="edge5" class="edge">
<title>BikeColorComponent&#45;&gt;AppModule</title>
<path fill="none" stroke="#000000" d="M694,-122.1061C694,-122.1061 694,-140.991 694,-140.991"/>
<polygon fill="#000000" stroke="#000000" points="690.5001,-140.9909 694,-150.991 697.5001,-140.991 690.5001,-140.9909"/>
</g>
<!-- BikeAccessoryComponent -->
<g id="node6" class="node">
<title>BikeAccessoryComponent</title>
<polygon fill="#ffffb3" stroke="#000000" points="606.0744,-122 439.9256,-122 439.9256,-86 606.0744,-86 606.0744,-122"/>
<text text-anchor="middle" x="523" y="-99.8" font-family="Times,serif" font-size="14.00" fill="#000000">BikeAccessoryComponent</text>
</g>
<!-- BikeAccessoryComponent&#45;&gt;AppModule -->
<g id="edge6" class="edge">
<title>BikeAccessoryComponent&#45;&gt;AppModule</title>
<path fill="none" stroke="#000000" d="M523,-122.0091C523,-138.0494 523,-159 523,-159 523,-159 642.1687,-159 642.1687,-159"/>
<polygon fill="#000000" stroke="#000000" points="642.1687,-162.5001 652.1687,-159 642.1687,-155.5001 642.1687,-162.5001"/>
</g>
<!-- SummaryComponent -->
<g id="node7" class="node">
<title>SummaryComponent</title>
<polygon fill="#ffffb3" stroke="#000000" points="421.7716,-122 286.2284,-122 286.2284,-86 421.7716,-86 421.7716,-122"/>
<text text-anchor="middle" x="354" y="-99.8" font-family="Times,serif" font-size="14.00" fill="#000000">SummaryComponent</text>
</g>
<!-- SummaryComponent&#45;&gt;AppModule -->
<g id="edge7" class="edge">
<title>SummaryComponent&#45;&gt;AppModule</title>
<path fill="none" stroke="#000000" d="M354,-122.2667C354,-140.5552 354,-166 354,-166 354,-166 642.3093,-166 642.3093,-166"/>
<polygon fill="#000000" stroke="#000000" points="642.3094,-169.5001 652.3093,-166 642.3093,-162.5001 642.3094,-169.5001"/>
</g>
<!-- AccessoryitemComponent -->
<g id="node8" class="node">
<title>AccessoryitemComponent</title>
<polygon fill="#ffffb3" stroke="#000000" points="268.0197,-122 103.9803,-122 103.9803,-86 268.0197,-86 268.0197,-122"/>
<text text-anchor="middle" x="186" y="-99.8" font-family="Times,serif" font-size="14.00" fill="#000000">AccessoryitemComponent</text>
</g>
<!-- AccessoryitemComponent&#45;&gt;AppModule -->
<g id="edge8" class="edge">
<title>AccessoryitemComponent&#45;&gt;AppModule</title>
<path fill="none" stroke="#000000" d="M186,-122.1289C186,-142.5724 186,-173 186,-173 186,-173 641.996,-173 641.996,-173"/>
<polygon fill="#000000" stroke="#000000" points="641.9961,-176.5001 651.996,-173 641.996,-169.5001 641.9961,-176.5001"/>
</g>
<!-- AppComponent  -->
<g id="node11" class="node">
<title>AppComponent </title>
<polygon fill="#80b1d3" stroke="#000000" points="748.439,-252 639.561,-252 639.561,-216 748.439,-216 748.439,-252"/>
<text text-anchor="middle" x="694" y="-229.8" font-family="Times,serif" font-size="14.00" fill="#000000">AppComponent </text>
</g>
<!-- AppModule&#45;&gt;AppComponent  -->
<g id="edge10" class="edge">
<title>AppModule&#45;&gt;AppComponent </title>
<path fill="none" stroke="#000000" stroke-dasharray="1,5" d="M694,-187.1061C694,-187.1061 694,-205.991 694,-205.991"/>
<polygon fill="#000000" stroke="#000000" points="690.5001,-205.9909 694,-215.991 697.5001,-205.991 690.5001,-205.9909"/>
</g>
<!-- routing -->
<g id="node10" class="node">
<title>routing</title>
<polygon fill="#8dd3c7" stroke="#000000" points="80.4435,-122 77.4435,-126 56.4435,-126 53.4435,-122 23.5565,-122 23.5565,-86 80.4435,-86 80.4435,-122"/>
<text text-anchor="middle" x="52" y="-99.8" font-family="Times,serif" font-size="14.00" fill="#000000">routing</text>
</g>
<!-- routing&#45;&gt;AppModule -->
<g id="edge9" class="edge">
<title>routing&#45;&gt;AppModule</title>
<path fill="none" stroke="#000000" d="M52,-122.0109C52,-144.4852 52,-180 52,-180 52,-180 641.8766,-180 641.8766,-180"/>
<polygon fill="#000000" stroke="#000000" points="641.8766,-183.5001 651.8766,-180 641.8766,-176.5001 641.8766,-183.5001"/>
</g>
</g>
</svg>
